<svg width="1726" height="1254" viewBox="0 0 1726 1254" fill="none" xmlns="http://www.w3.org/2000/svg" xmlns:xlink="http://www.w3.org/1999/xlink">
<path d="M1258.999,514.746L1262.927,513.994L1262.911,513.912L1262.893,513.83L1258.999,514.746ZM659.599,317.652L657.421,314.296L657.357,314.338L657.293,314.382L659.599,317.652ZM121.599,601.652L125.469,602.662L125.72,601.702L125.493,600.736L121.599,601.652ZM352.599,641.65L352.473,637.652L352.223,637.66L351.975,637.7L352.599,641.65ZM269.999,953.748L266.073,954.514L266.11,954.702L266.165,954.886L269.999,953.748ZM1047.999,891.604L1049.411,895.346L1049.411,895.346L1047.999,891.604ZM657.293,314.382C518.637,412.14 382.441,474.508 281.802,516.712C231.596,537.766 189.94,553.92 161.535,566.854C147.339,573.32 136.129,579.118 128.68,584.478C124.965,587.152 121.941,589.888 119.974,592.744C117.965,595.66 116.869,599.012 117.705,602.568L125.493,600.736C125.329,600.04 125.389,598.986 126.563,597.28C127.779,595.516 129.963,593.412 133.353,590.972C140.115,586.106 150.703,580.578 164.85,574.136C193.132,561.258 234.351,545.286 284.896,524.09C385.755,481.794 522.559,419.163 661.903,320.921L657.293,314.382ZM117.729,600.64C111.426,624.758 122.864,644.918 142.629,660.918C162.326,676.862 190.929,689.296 221.058,698.478C251.26,707.684 283.349,713.728 310.298,716.722C323.775,718.218 336.019,718.956 346.139,718.936C356.143,718.916 364.439,718.16 369.803,716.466L367.395,708.836C363.257,710.144 355.991,710.918 346.125,710.936C336.373,710.956 324.439,710.242 311.181,708.77C284.661,705.826 253.063,699.87 223.39,690.826C193.644,681.76 166.184,669.692 147.663,654.7C129.209,639.762 120.272,622.546 125.469,602.662L117.729,600.64ZM369.803,716.466C390.455,709.944 403.681,690.108 402.845,671.72C402.419,662.372 398.343,653.416 389.849,647.018C381.431,640.678 369.061,637.134 352.473,637.652L352.723,645.648C368.135,645.168 378.517,648.498 385.035,653.408C391.479,658.262 394.527,664.93 394.853,672.082C395.517,686.694 384.741,703.358 367.395,708.836L369.803,716.466ZM351.975,637.7C341.453,639.36 327.665,646.946 313.347,657.634C298.87,668.438 283.327,682.818 269.228,698.75C255.136,714.676 242.386,732.266 233.583,749.522C224.825,766.688 219.735,783.986 221.63,799.148L229.568,798.156C227.963,785.316 232.248,769.74 240.709,753.156C249.124,736.662 261.437,719.628 275.219,704.052C288.995,688.484 304.14,674.488 318.132,664.044C332.281,653.482 344.743,646.94 353.223,645.602L351.975,637.7ZM221.63,799.148C223.597,814.882 235.161,827.634 250.699,837.64C266.324,847.702 286.671,855.46 307.702,861.018C328.767,866.586 350.741,870 369.755,871.268C388.601,872.522 405.079,871.708 414.863,868.446L412.333,860.856C404.119,863.594 388.971,864.53 370.287,863.286C351.769,862.052 330.305,858.716 309.746,853.284C289.151,847.842 269.686,840.35 255.03,830.912C240.287,821.418 231.101,810.42 229.568,798.156L221.63,799.148ZM414.863,868.446C435.315,861.628 443.157,839.154 438.067,821.54C435.469,812.558 429.471,804.54 419.871,800.25C410.307,795.974 397.717,795.642 382.315,800.864L384.883,808.44C398.979,803.66 409.391,804.328 416.607,807.554C423.789,810.762 428.353,816.744 430.381,823.762C434.539,838.15 427.881,855.674 412.333,860.856L414.863,868.446ZM382.315,800.864C351.733,811.23 320.731,838.964 298.463,868.938C287.287,883.984 278.177,899.77 272.357,914.496C266.579,929.118 263.859,943.164 266.073,954.514L273.925,952.98C272.14,943.83 274.244,931.488 279.797,917.436C285.309,903.49 294.036,888.314 304.885,873.71C326.667,844.386 356.465,818.072 384.883,808.44L382.315,800.864ZM1262.893,513.83C1228.089,366.039 1137.357,276.584 1024.683,244.013C912.179,211.491 778.391,235.838 657.421,314.296L661.775,321.008C781.203,243.549 912.615,219.944 1022.461,251.698C1132.139,283.403 1220.909,370.454 1255.105,515.664L1262.893,513.83ZM266.165,954.886C275.571,986.562 309.144,1005.93 357.119,1015.806C405.383,1025.742 469.747,1026.426 543.489,1019.398C691.043,1005.338 877.161,960.304 1049.411,895.346L1046.587,887.862C874.877,952.616 689.457,997.452 542.731,1011.434C469.335,1018.428 405.873,1017.676 358.731,1007.972C311.301,998.206 281.888,979.73 273.834,952.608L266.165,954.886ZM1049.411,895.346C1189.735,842.428 1295.323,683.058 1262.927,513.994L1255.071,515.5C1286.675,680.434 1183.569,836.202 1046.587,887.862L1049.411,895.346Z" transform="rotate(60 692.404 627.033)" fill="#000000"/>
<path d="M1715,514.746L1718.928,513.994L1718.912,513.912L1718.894,513.83L1715,514.746ZM1115.6,317.652L1113.422,314.296L1113.358,314.338L1113.294,314.382L1115.6,317.652ZM577.6,601.652L581.47,602.662L581.721,601.702L581.493,600.736L577.6,601.652ZM808.6,641.65L808.474,637.652L808.224,637.66L807.976,637.7L808.6,641.65ZM726,953.748L722.074,954.514L722.111,954.702L722.165,954.886L726,953.748ZM1504,891.604L1505.412,895.346L1505.412,895.346L1504,891.604ZM1113.294,314.382C974.638,412.14 838.442,474.508 737.802,516.712C687.597,537.766 645.941,553.92 617.536,566.854C603.339,573.32 592.13,579.118 584.681,584.478C580.966,587.152 577.941,589.888 575.975,592.744C573.966,595.66 572.869,599.012 573.706,602.568L581.493,600.736C581.33,600.04 581.389,598.986 582.564,597.28C583.779,595.516 585.964,593.412 589.354,590.972C596.116,586.106 606.703,580.578 620.851,574.136C649.133,561.258 690.352,545.286 740.896,524.09C841.756,481.794 978.56,419.163 1117.904,320.921L1113.294,314.382ZM573.73,600.64C567.426,624.758 578.865,644.918 598.63,660.918C618.327,676.862 646.93,689.296 677.058,698.478C707.26,707.684 739.35,713.728 766.299,716.722C779.776,718.218 792.02,718.956 802.14,718.936C812.144,718.916 820.44,718.16 825.804,716.466L823.396,708.836C819.258,710.144 811.992,710.918 802.126,710.936C792.374,710.956 780.44,710.242 767.182,708.77C740.662,705.826 709.064,699.87 679.391,690.826C649.644,681.76 622.185,669.692 603.663,654.7C585.209,639.762 576.273,622.546 581.47,602.662L573.73,600.64ZM825.804,716.466C846.456,709.944 859.682,690.108 858.846,671.72C858.42,662.372 854.344,653.416 845.85,647.018C837.432,640.678 825.062,637.134 808.474,637.652L808.724,645.648C824.136,645.168 834.518,648.498 841.036,653.408C847.48,658.262 850.528,664.93 850.854,672.082C851.518,686.694 840.742,703.358 823.396,708.836L825.804,716.466ZM807.976,637.7C797.454,639.36 783.666,646.946 769.347,657.634C754.871,668.438 739.328,682.818 725.229,698.75C711.136,714.676 698.387,732.266 689.583,749.522C680.825,766.688 675.735,783.986 677.63,799.148L685.569,798.156C683.964,785.316 688.249,769.74 696.709,753.156C705.125,736.662 717.438,719.628 731.22,704.052C744.996,688.484 760.141,674.488 774.133,664.044C788.282,653.482 800.744,646.94 809.224,645.602L807.976,637.7ZM677.63,799.148C679.597,814.882 691.161,827.634 706.699,837.64C722.325,847.702 742.672,855.46 763.702,861.018C784.768,866.586 806.742,870 825.756,871.268C844.602,872.522 861.08,871.708 870.864,868.446L868.334,860.856C860.12,863.594 844.972,864.53 826.288,863.286C807.77,862.052 786.306,858.716 765.746,853.284C745.152,847.842 725.686,840.35 711.031,830.912C696.287,821.418 687.102,810.42 685.569,798.156L677.63,799.148ZM870.864,868.446C891.316,861.628 899.158,839.154 894.068,821.54C891.47,812.558 885.472,804.54 875.872,800.25C866.308,795.974 853.718,795.642 838.316,800.864L840.884,808.44C854.98,803.66 865.392,804.328 872.608,807.554C879.79,810.762 884.354,816.744 886.382,823.762C890.54,838.15 883.882,855.674 868.334,860.856L870.864,868.446ZM838.316,800.864C807.734,811.23 776.732,838.964 754.464,868.938C743.288,883.984 734.178,899.77 728.358,914.496C722.58,929.118 719.859,943.164 722.074,954.514L729.926,952.98C728.14,943.83 730.245,931.488 735.798,917.436C741.309,903.49 750.037,888.314 760.886,873.71C782.668,844.386 812.466,818.072 840.884,808.44L838.316,800.864ZM1718.894,513.83C1684.09,366.039 1593.358,276.584 1480.684,244.013C1368.18,211.491 1234.392,235.838 1113.422,314.296L1117.776,321.008C1237.204,243.549 1368.616,219.944 1478.462,251.698C1588.14,283.403 1676.91,370.454 1711.106,515.664L1718.894,513.83ZM722.165,954.886C731.572,986.562 765.145,1005.93 813.12,1015.806C861.384,1025.742 925.748,1026.426 999.49,1019.398C1147.044,1005.338 1333.162,960.304 1505.412,895.346L1502.588,887.862C1330.878,952.616 1145.458,997.452 998.732,1011.434C925.336,1018.428 861.874,1017.676 814.732,1007.972C767.302,998.206 737.889,979.73 729.834,952.608L722.165,954.886ZM1505.412,895.346C1645.736,842.428 1751.324,683.058 1718.928,513.994L1711.072,515.5C1742.676,680.434 1639.57,836.202 1502.588,887.862L1505.412,895.346Z" transform="rotate(300 1148.405 627.033)" fill="#000000"/>
</svg>
