<svg width="44" height="40" viewBox="0 0 44 40" fill="none" xmlns="http://www.w3.org/2000/svg" xmlns:xlink="http://www.w3.org/1999/xlink">
<path d="M7.82,12.547L7.82,33.934C7.82,35.706 9.257,37.142 11.028,37.142L32.416,37.142C34.187,37.142 35.624,35.706 35.624,33.934L35.624,12.547L37.762,12.547L37.762,33.934C37.762,36.887 35.369,39.281 32.416,39.281L11.028,39.281C8.075,39.281 5.682,36.887 5.682,33.934L5.682,12.547L7.82,12.547Z" clip-rule="evenodd" fill-rule="evenodd" fill="#000000"/>
<path d="M21.107,0.978C21.475,0.72 21.966,0.72 22.334,0.978L43.721,15.948L42.494,17.7L21.721,3.159L0.947,17.7L-0.279,15.948L21.107,0.978Z" clip-rule="evenodd" fill-rule="evenodd" fill="#000000"/>
</svg>
