<svg width="34" height="34" viewBox="0 0 34 34" fill="none" xmlns="http://www.w3.org/2000/svg" xmlns:xlink="http://www.w3.org/1999/xlink">
<path d="M8.657,0L2.511,0C1.123,0 0,1.123 0,2.511L0,8.327C0,8.723 0.264,8.988 0.661,8.988C1.057,8.988 1.322,8.724 1.322,8.327L1.322,2.511C1.322,1.85 1.851,1.322 2.511,1.322L8.657,1.322C9.053,1.322 9.318,1.058 9.318,0.661C9.318,0.264 9.053,0 8.657,0L8.657,0Z" fill="#FFFFFF"/>
<path d="M29.805,0L23.659,0C23.263,0 22.998,0.264 22.998,0.661C22.998,1.057 23.262,1.322 23.659,1.322L29.805,1.322C30.466,1.322 30.994,1.851 30.994,2.511L30.994,8.327C30.994,8.723 31.258,8.988 31.655,8.988C32.051,8.988 32.316,8.724 32.316,8.327L32.316,2.511C32.249,1.123 31.126,0 29.805,0L29.805,0Z" fill="#FFFFFF"/>
<path d="M8.657,31.455L2.511,31.455C1.85,31.455 1.322,30.927 1.322,30.266L1.322,24.451C1.322,24.054 1.058,23.79 0.661,23.79C0.265,23.79 0,24.054 0,24.451L0,30.266C0,31.654 1.123,32.777 2.511,32.777L8.657,32.777C9.053,32.777 9.318,32.513 9.318,32.116C9.318,31.72 9.053,31.455 8.657,31.455L8.657,31.455Z" fill="#FFFFFF"/>
<path d="M31.588,23.79C31.192,23.79 30.927,24.054 30.927,24.451L30.927,30.266C30.927,30.927 30.399,31.455 29.738,31.455L23.593,31.455C23.196,31.455 22.932,31.72 22.932,32.116C22.932,32.513 23.196,32.777 23.593,32.777L29.738,32.777C31.126,32.777 32.249,31.654 32.249,30.266L32.249,24.451C32.249,24.054 31.985,23.79 31.588,23.79L31.588,23.79Z" fill="#FFFFFF"/>
<path d="M16.124,10.573C12.952,10.573 10.309,13.15 10.309,16.389C10.309,19.56 12.886,22.204 16.124,22.204C19.296,22.204 21.939,19.627 21.939,16.389C21.939,13.15 19.362,10.573 16.124,10.573ZM16.124,20.882C13.679,20.882 11.631,18.899 11.631,16.389C11.631,13.877 13.613,11.895 16.124,11.895C18.635,11.895 20.617,13.878 20.617,16.389C20.617,18.9 18.635,20.882 16.124,20.882L16.124,20.882Z" fill="#FFFFFF"/>
</svg>
