<svg width="392" height="242" viewBox="0 0 392 242" fill="none" xmlns="http://www.w3.org/2000/svg" xmlns:xlink="http://www.w3.org/1999/xlink">
<path d="M216.511,102.08L215.577,102.437L215.577,102.437L216.511,102.08ZM99.834,66.947L99.29,66.108L99.274,66.118L99.258,66.129L99.834,66.947ZM18.761,109.744L19.729,109.997L19.792,109.756L19.735,109.515L18.761,109.744ZM53.571,115.771L53.54,114.772L53.477,114.774L53.415,114.784L53.571,115.771ZM44.681,163.089L45.679,163.03L44.681,163.089ZM189.798,161.13L189.179,160.345L189.127,160.386L189.08,160.435L189.798,161.13ZM99.258,66.129C78.398,80.837 57.904,90.222 42.749,96.578C35.201,99.743 28.901,102.187 24.615,104.139C22.473,105.114 20.753,106.001 19.596,106.834C19.02,107.248 18.523,107.692 18.189,108.176C17.845,108.676 17.628,109.295 17.788,109.973L19.735,109.515C19.735,109.515 19.735,109.515 19.735,109.516C19.735,109.516 19.735,109.517 19.735,109.517C19.735,109.515 19.735,109.52 19.735,109.517C19.735,109.515 19.735,109.52 19.735,109.518C19.735,109.515 19.735,109.52 19.735,109.517C19.735,109.515 19.735,109.519 19.735,109.517C19.735,109.516 19.735,109.515 19.735,109.514C19.736,109.511 19.736,109.507 19.738,109.5C19.745,109.474 19.767,109.411 19.837,109.31C19.982,109.099 20.27,108.813 20.765,108.457C21.75,107.748 23.314,106.929 25.444,105.959C29.699,104.021 35.889,101.623 43.523,98.422C58.732,92.044 79.378,82.593 100.411,67.764L99.258,66.129ZM17.794,109.491C16.789,113.335 18.637,116.52 21.681,118.984C24.707,121.433 29.074,123.325 33.633,124.715C38.211,126.11 43.071,127.026 47.153,127.479C49.195,127.706 51.055,127.818 52.599,127.815C54.113,127.812 55.414,127.699 56.284,127.424L55.681,125.517C55.119,125.695 54.075,125.812 52.595,125.815C51.144,125.818 49.361,125.712 47.374,125.491C43.399,125.05 38.662,124.157 34.216,122.802C29.753,121.441 25.672,119.641 22.939,117.429C20.223,115.231 19.001,112.783 19.729,109.997L17.794,109.491ZM56.284,127.424C59.56,126.39 61.674,123.243 61.54,120.285C61.471,118.767 60.806,117.304 59.424,116.263C58.061,115.237 56.098,114.692 53.54,114.772L53.603,116.771C55.867,116.7 57.332,117.192 58.221,117.861C59.09,118.515 59.498,119.406 59.542,120.375C59.634,122.39 58.131,124.743 55.681,125.517L56.284,127.424ZM53.415,114.784C51.728,115.05 49.585,116.245 47.419,117.862C45.213,119.508 42.851,121.694 40.711,124.113C38.572,126.53 36.629,129.208 35.283,131.846C33.948,134.462 33.141,137.154 33.441,139.554L35.426,139.306C35.198,137.487 35.804,135.225 37.064,132.755C38.313,130.307 40.147,127.768 42.208,125.438C44.268,123.11 46.531,121.02 48.615,119.464C50.739,117.879 52.551,116.945 53.727,116.759L53.415,114.784ZM33.441,139.554C33.759,142.098 35.62,144.106 38.001,145.64C40.404,147.187 43.513,148.37 46.704,149.213C49.904,150.058 53.24,150.577 56.13,150.77C58.978,150.959 61.528,150.842 63.08,150.325L62.448,148.427C61.288,148.814 59.071,148.961 56.263,148.774C53.498,148.59 50.288,148.091 47.215,147.279C44.133,146.465 41.244,145.349 39.084,143.958C36.901,142.553 35.635,140.982 35.426,139.306L33.441,139.554ZM63.08,150.325C66.406,149.216 67.646,145.584 66.832,142.769C66.413,141.318 65.438,140.009 63.871,139.309C62.313,138.612 60.308,138.579 57.922,139.387L58.564,141.282C60.623,140.583 62.084,140.701 63.055,141.134C64.017,141.565 64.634,142.365 64.911,143.325C65.492,145.333 64.547,147.728 62.448,148.427L63.08,150.325ZM57.922,139.387C53.141,141.008 49.478,145.134 47.082,149.662C44.683,154.193 43.453,159.31 43.682,163.149L45.679,163.03C45.476,159.636 46.581,154.882 48.849,150.597C51.119,146.309 54.454,142.675 58.564,141.282L57.922,139.387ZM43.682,163.149C43.909,166.939 45.859,170.39 49.023,173.421C52.184,176.448 56.604,179.107 61.916,181.344C72.544,185.82 86.922,188.686 102.485,189.352C133.561,190.683 169.78,183.256 190.517,161.826L189.08,160.435C168.929,181.26 133.418,188.675 102.571,187.354C87.172,186.695 73.042,183.86 62.693,179.501C57.517,177.321 53.333,174.779 50.407,171.977C47.485,169.178 45.867,166.171 45.679,163.03L43.682,163.149ZM190.417,161.916C199.576,154.698 207.204,142.017 212.103,130.086C214.558,124.105 216.347,118.267 217.303,113.333C217.781,110.866 218.055,108.608 218.094,106.66C218.134,104.727 217.945,103.028 217.445,101.722L215.577,102.437C215.945,103.397 216.132,104.801 216.095,106.619C216.058,108.422 215.803,110.562 215.34,112.952C214.413,117.733 212.668,123.443 210.253,129.326C205.409,141.123 197.946,153.436 189.179,160.345L190.417,161.916ZM217.445,101.722C205.199,69.712 184.825,54.78 162.827,50.923C140.905,47.079 117.55,54.265 99.29,66.108L100.378,67.786C118.345,56.133 141.191,49.16 162.482,52.893C183.698,56.613 203.549,70.995 215.577,102.437L217.445,101.722Z" transform="rotate(95.004 117.81 119.692)" fill="#FFFFFF"/>
<path d="M372.757,104.696L371.823,105.053L371.823,105.053L372.757,104.696ZM256.08,69.563L255.536,68.724L255.519,68.735L255.503,68.746L256.08,69.563ZM175.007,112.36L175.974,112.613L176.037,112.373L175.98,112.131L175.007,112.36ZM209.817,118.388L209.786,117.388L209.723,117.39L209.661,117.4L209.817,118.388ZM200.926,165.705L201.924,165.646L200.926,165.705ZM346.044,163.746L345.425,162.961L345.372,163.003L345.325,163.051L346.044,163.746ZM255.503,68.746C234.643,83.453 214.15,92.839 198.995,99.194C191.446,102.36 185.147,104.803 180.86,106.755C178.719,107.73 176.998,108.617 175.842,109.45C175.266,109.864 174.768,110.308 174.435,110.792C174.091,111.292 173.874,111.911 174.033,112.589L175.98,112.131C175.98,112.131 175.98,112.131 175.98,112.132C175.98,112.132 175.98,112.133 175.98,112.133C175.98,112.131 175.98,112.136 175.98,112.134C175.98,112.131 175.98,112.136 175.98,112.134C175.98,112.131 175.98,112.136 175.98,112.134C175.98,112.131 175.98,112.136 175.98,112.133C175.98,112.132 175.981,112.131 175.981,112.13C175.981,112.128 175.982,112.123 175.984,112.117C175.99,112.09 176.013,112.027 176.082,111.927C176.228,111.715 176.515,111.429 177.01,111.073C177.995,110.364 179.56,109.545 181.689,108.575C185.945,106.637 192.134,104.24 199.768,101.038C214.978,94.66 235.623,85.209 256.656,70.38L255.503,68.746ZM174.039,112.107C173.034,115.952 174.882,119.136 177.926,121.6C180.952,124.05 185.32,125.942 189.879,127.331C194.456,128.726 199.316,129.642 203.399,130.095C205.44,130.322 207.301,130.434 208.844,130.431C210.358,130.428 211.66,130.315 212.529,130.041L211.927,128.133C211.364,128.311 210.321,128.428 208.84,128.431C207.39,128.434 205.606,128.328 203.619,128.107C199.644,127.666 194.907,126.773 190.462,125.418C185.998,124.058 181.917,122.257 179.184,120.045C176.468,117.847 175.246,115.399 175.974,112.613L174.039,112.107ZM212.529,130.041C215.805,129.006 217.92,125.859 217.785,122.901C217.716,121.383 217.051,119.92 215.669,118.879C214.306,117.853 212.344,117.308 209.786,117.388L209.848,119.387C212.112,119.316 213.578,119.808 214.466,120.477C215.335,121.131 215.743,122.022 215.787,122.992C215.879,125.006 214.377,127.36 211.927,128.133L212.529,130.041ZM209.661,117.4C207.974,117.666 205.83,118.861 203.664,120.478C201.459,122.124 199.097,124.31 196.956,126.729C194.817,129.146 192.874,131.824 191.528,134.462C190.194,137.078 189.387,139.771 189.687,142.171L191.671,141.923C191.444,140.103 192.049,137.842 193.31,135.371C194.559,132.924 196.392,130.384 198.454,128.054C200.514,125.727 202.776,123.636 204.861,122.08C206.985,120.495 208.797,119.561 209.973,119.375L209.661,117.4ZM189.687,142.171C190.004,144.714 191.865,146.723 194.246,148.256C196.649,149.803 199.759,150.986 202.95,151.829C206.149,152.675 209.486,153.193 212.376,153.386C215.224,153.575 217.773,153.459 219.325,152.941L218.693,151.044C217.533,151.43 215.316,151.577 212.509,151.39C209.743,151.206 206.534,150.707 203.461,149.895C200.379,149.081 197.489,147.965 195.329,146.574C193.147,145.169 191.881,143.598 191.671,141.923L189.687,142.171ZM219.325,152.941C222.651,151.833 223.891,148.2 223.078,145.386C222.658,143.934 221.683,142.625 220.117,141.925C218.558,141.228 216.553,141.195 214.167,142.004L214.809,143.898C216.869,143.2 218.33,143.317 219.3,143.751C220.263,144.181 220.879,144.981 221.157,145.941C221.737,147.949 220.792,150.344 218.693,151.044L219.325,152.941ZM214.167,142.004C209.386,143.624 205.724,147.75 203.327,152.278C200.929,156.809 199.698,161.926 199.928,165.765L201.924,165.646C201.721,162.252 202.826,157.499 205.095,153.214C207.365,148.926 210.7,145.291 214.809,143.898L214.167,142.004ZM199.928,165.765C200.154,169.556 202.104,173.006 205.269,176.037C208.429,179.065 212.85,181.723 218.162,183.961C228.789,188.436 243.168,191.302 258.731,191.969C289.806,193.3 326.025,185.872 346.762,164.442L345.325,163.051C325.174,183.876 289.663,191.292 258.816,189.97C243.418,189.311 229.287,186.476 218.938,182.117C213.762,179.938 209.578,177.396 206.652,174.593C203.73,171.795 202.112,168.787 201.924,165.646L199.928,165.765ZM346.663,164.532C355.821,157.314 363.449,144.634 368.348,132.702C370.804,126.721 372.592,120.883 373.549,115.949C374.027,113.483 374.3,111.224 374.34,109.276C374.379,107.343 374.19,105.644 373.691,104.338L371.823,105.053C372.19,106.013 372.377,107.417 372.34,109.235C372.304,111.038 372.049,113.178 371.585,115.569C370.659,120.349 368.914,126.059 366.498,131.942C361.655,143.739 354.191,156.053 345.425,162.961L346.663,164.532ZM373.691,104.338C361.444,72.328 341.07,57.396 319.073,53.539C297.15,49.695 273.795,56.881 255.536,68.724L256.624,70.402C274.59,58.749 297.437,51.776 318.727,55.509C339.943,59.229 359.794,73.612 371.823,105.053L373.691,104.338Z" transform="rotate(264.996 274.055 122.308)" fill="#FFFFFF"/>
</svg>
