<svg width="42" height="38" viewBox="0 0 42 38" fill="none" xmlns="http://www.w3.org/2000/svg" xmlns:xlink="http://www.w3.org/1999/xlink">
<path d="M-0.781,9.27C-0.781,8.731 -0.344,8.294 0.195,8.294L35.342,8.294C38.037,8.294 40.223,10.479 40.223,13.175L40.223,32.701C40.223,35.397 38.037,37.582 35.342,37.582L4.1,37.582C1.404,37.582 -0.781,35.397 -0.781,32.701L-0.781,9.27ZM1.172,10.246L1.172,32.701C1.172,34.318 2.483,35.629 4.1,35.629L35.342,35.629C36.959,35.629 38.271,34.318 38.271,32.701L38.271,13.175C38.271,11.558 36.959,10.246 35.342,10.246L1.172,10.246Z" clip-rule="evenodd" fill-rule="evenodd" fill="#929292"/>
<path d="M-0.781,9.27C-0.781,9.809 -0.344,10.246 0.195,10.246L35.341,10.246C35.88,10.246 36.317,9.809 36.317,9.27L36.317,5.365C36.317,2.669 34.132,0.483 31.436,0.483L4.1,0.483C1.404,0.483 -0.781,2.669 -0.781,5.365L-0.781,9.27ZM1.171,8.294L1.171,5.365C1.171,3.747 2.483,2.436 4.1,2.436L31.436,2.436C33.054,2.436 34.365,3.747 34.365,5.365L34.365,8.294L1.171,8.294Z" clip-rule="evenodd" fill-rule="evenodd" fill="#929292"/>
<path d="M22.65,22.939C22.65,19.164 25.71,16.104 29.484,16.104L39.247,16.104C39.786,16.104 40.223,16.542 40.223,17.081L40.223,28.796C40.223,29.335 39.786,29.772 39.247,29.772L29.484,29.772C25.71,29.772 22.65,26.713 22.65,22.939ZM29.484,18.057C26.788,18.057 24.603,20.242 24.603,22.939C24.603,25.634 26.788,27.82 29.484,27.82L38.271,27.82L38.271,18.057L29.484,18.057Z" clip-rule="evenodd" fill-rule="evenodd" fill="#929292"/>
<rect  x="29.484" y="21.962" width="1.952" height="1.952" fill="#929292"/>
</svg>
