<svg width="1300" height="794" viewBox="0 0 1300 794" fill="none" xmlns="http://www.w3.org/2000/svg" xmlns:xlink="http://www.w3.org/1999/xlink">
<path d="M1293.6,468.904L1297.1,470.84L1298.16,468.922L1297.116,466.998L1293.6,468.904ZM543.6,84.904L541.422,81.549L541.358,81.591L541.294,81.635L543.6,84.904ZM5.6,368.904L9.47,369.916L9.721,368.956L9.493,367.988L5.6,368.904ZM236.6,408.904L236.474,404.906L236.224,404.914L235.976,404.952L236.6,408.904ZM154,721L150.074,721.766L150.111,721.954L150.166,722.138L154,721ZM1243,536L1245.29,539.28L1243,536ZM1178.6,256.904L1175.016,258.682L1175.048,258.748L1175.084,258.812L1178.6,256.904ZM541.294,81.635C402.638,179.392 266.442,241.762 165.803,283.966C115.597,305.02 73.941,321.174 45.536,334.108C31.34,340.572 20.13,346.372 12.681,351.732C8.966,354.406 5.942,357.14 3.975,359.996C1.966,362.914 0.87,366.266 1.706,369.82L9.493,367.988C9.33,367.294 9.39,366.24 10.564,364.534C11.779,362.768 13.964,360.664 17.354,358.226C24.116,353.36 34.704,347.83 48.851,341.388C77.133,328.51 118.352,312.54 168.896,291.344C269.756,249.048 406.56,186.416 545.904,88.174L541.294,81.635ZM1.73,367.894C-4.574,392.01 6.865,412.17 26.63,428.17C46.327,444.114 74.93,456.548 105.059,465.732C135.261,474.936 167.35,480.982 194.299,483.974C207.776,485.47 220.02,486.21 230.14,486.19C240.144,486.17 248.44,485.412 253.804,483.718L251.396,476.09C247.258,477.396 239.992,478.17 230.126,478.19C220.374,478.208 208.44,477.496 195.182,476.022C168.662,473.078 137.064,467.124 107.391,458.078C77.644,449.012 50.185,436.946 31.663,421.952C13.21,407.014 4.273,389.8 9.47,369.916L1.73,367.894ZM253.804,483.718C274.456,477.196 287.682,457.36 286.846,438.972C286.42,429.626 282.344,420.668 273.85,414.272C265.432,407.932 253.062,404.388 236.474,404.906L236.724,412.902C252.136,412.42 262.518,415.752 269.036,420.662C275.48,425.514 278.528,432.182 278.854,439.336C279.518,453.946 268.742,470.612 251.396,476.09L253.804,483.718ZM235.976,404.952C225.454,406.614 211.666,414.198 197.347,424.886C182.871,435.692 167.328,450.072 153.229,466.004C139.137,481.93 126.387,499.518 117.583,516.774C108.825,533.94 103.735,551.24 105.63,566.4L113.569,565.408C111.964,552.57 116.249,536.994 124.71,520.41C133.125,503.916 145.438,486.88 159.22,471.306C172.996,455.738 188.141,441.742 202.133,431.298C216.282,420.734 228.744,414.194 237.224,412.854L235.976,404.952ZM105.63,566.4C107.597,582.136 119.162,594.886 134.699,604.892C150.325,614.954 170.672,622.714 191.703,628.272C212.768,633.838 234.742,637.254 253.756,638.52C272.602,639.776 289.08,638.96 298.864,635.7L296.334,628.11C288.12,630.848 272.972,631.782 254.288,630.538C235.77,629.304 214.306,625.97 193.747,620.536C173.152,615.094 153.687,607.604 139.031,598.166C124.287,588.672 115.102,577.672 113.569,565.408L105.63,566.4ZM298.864,635.7C319.316,628.882 327.158,606.406 322.068,588.794C319.47,579.812 313.472,571.792 303.872,567.502C294.308,563.228 281.718,562.894 266.316,568.116L268.884,575.692C282.98,570.914 293.392,571.582 300.608,574.806C307.79,578.016 312.354,583.998 314.382,591.016C318.54,605.402 311.882,622.928 296.334,628.11L298.864,635.7ZM266.316,568.116C235.734,578.482 204.732,606.216 182.464,636.192C171.288,651.236 162.178,667.022 156.358,681.75C150.58,696.372 147.86,710.418 150.074,721.766L157.926,720.234C156.14,711.082 158.245,698.742 163.798,684.69C169.31,670.742 178.037,655.566 188.886,640.962C210.668,611.64 240.466,585.326 268.884,575.692L266.316,568.116ZM150.166,722.138C156.771,744.382 175.487,760.552 202.463,771.708C229.448,782.868 265.28,789.278 307.332,791.712C391.478,796.582 501.588,785.584 618.238,763.682C851.432,719.894 1112.096,632.264 1245.29,539.28L1240.71,532.72C1108.904,624.736 849.568,712.106 616.762,755.818C500.412,777.666 391.022,788.542 307.794,783.726C266.158,781.316 231.332,774.99 205.52,764.316C179.7,753.636 163.479,738.868 157.834,719.862L150.166,722.138ZM1245.29,539.28C1251.236,535.128 1257.422,528.684 1263.274,521.58C1269.166,514.43 1274.886,506.404 1279.878,498.912C1284.876,491.412 1289.176,484.404 1292.226,479.272C1293.752,476.704 1294.966,474.604 1295.802,473.14C1296.218,472.41 1296.542,471.838 1296.76,471.448C1296.87,471.252 1296.954,471.102 1297.012,471C1297.04,470.948 1297.062,470.91 1297.076,470.882C1297.084,470.87 1297.09,470.858 1297.094,470.852C1297.096,470.848 1297.098,470.846 1297.098,470.844C1297.098,470.842 1297.1,470.842 1297.1,470.84C1297.1,470.84 1297.1,470.84 1293.6,468.904C1290.098,466.97 1290.098,466.968 1290.098,466.97C1290.098,466.97 1290.098,466.97 1290.098,466.97C1290.098,466.972 1290.096,466.974 1290.096,466.976C1290.092,466.982 1290.088,466.99 1290.082,467.002C1290.068,467.024 1290.048,467.06 1290.022,467.106C1289.97,467.202 1289.89,467.344 1289.786,467.53C1289.574,467.906 1289.262,468.46 1288.854,469.174C1288.04,470.6 1286.848,472.662 1285.348,475.184C1282.348,480.234 1278.124,487.12 1273.222,494.474C1268.314,501.836 1262.76,509.624 1257.1,516.494C1251.402,523.41 1245.764,529.192 1240.71,532.72L1245.29,539.28ZM1297.116,466.998L1182.116,254.998L1175.084,258.812L1290.084,470.812L1297.116,466.998ZM1182.182,255.128C1119.234,128.222 1019.726,45.402 905.43,14.078C791.132,-17.246 662.466,3.043 541.422,81.549L545.776,88.26C665.13,10.85 791.464,-8.861 903.316,21.794C1015.172,52.449 1112.966,133.587 1175.016,258.682L1182.182,255.128Z" transform="rotate(360 648.8 396.426)" fill="#000000"/>
</svg>
