<svg width="22" height="22" viewBox="0 0 22 22" fill="none" xmlns="http://www.w3.org/2000/svg" xmlns:xlink="http://www.w3.org/1999/xlink">
<path d="M1.849,0.151C1.38,-0.317 0.62,-0.317 0.151,0.151C-0.317,0.62 -0.317,1.38 0.151,1.849L1.849,0.151ZM19,19L19,20.2C19.663,20.2 20.2,19.663 20.2,19L19,19ZM20.2,1C20.2,0.337 19.663,-0.2 19,-0.2C18.337,-0.2 17.8,0.337 17.8,1L20.2,1ZM1,17.8C0.337,17.8 -0.2,18.337 -0.2,19C-0.2,19.663 0.337,20.2 1,20.2L1,17.8ZM0.151,1.849L18.151,19.849L19.849,18.151L1.849,0.151L0.151,1.849ZM17.8,1L17.8,19L20.2,19L20.2,1L17.8,1ZM19,17.8L1,17.8L1,20.2L19,20.2L19,17.8Z" transform="rotate(-180 10 10)" fill="#FFFFFF"/>
</svg>
