<svg width="28" height="28" viewBox="0 0 28 28" fill="none" xmlns="http://www.w3.org/2000/svg" xmlns:xlink="http://www.w3.org/1999/xlink">
<path d="M28,11.903C27.999,11.8 27.973,11.699 27.926,11.607C27.732,10.489 27.148,9.475 26.276,8.743C25.404,8.011 24.3,7.609 23.159,7.607L21.868,7.607L21.868,1.682C21.868,1.457 21.756,1.246 21.568,1.119C21.381,0.992 21.143,0.965 20.932,1.047L3.721,7.742C2.662,7.994 1.72,8.592 1.045,9.44C0.37,10.288 0.002,11.338 0,12.42L0,22.187C0.002,23.463 0.512,24.687 1.42,25.589C2.327,26.491 3.558,26.999 4.841,27L23.159,27C24.442,26.999 25.673,26.491 26.58,25.589C27.488,24.686 27.998,23.463 28,22.187L28,12.42C28,12.28 27.99,12.143 27.979,12.007L27.979,12.007C27.989,11.973 27.996,11.938 28,11.903L28,11.903ZM26.4,11.221L1.601,11.221C1.886,10.466 2.429,9.834 3.135,9.436L4.151,9.041C4.378,8.995 4.61,8.971 4.842,8.971L23.159,8.971C23.866,8.973 24.555,9.19 25.134,9.592C25.713,9.994 26.155,10.562 26.4,11.221L26.4,11.221ZM20.496,7.607L7.834,7.607L20.496,2.681L20.496,7.607ZM23.159,25.636L4.841,25.637C3.922,25.636 3.04,25.272 2.389,24.625C1.739,23.979 1.373,23.102 1.372,22.188L1.372,12.585L26.628,12.585L26.628,22.188C26.627,23.102 26.261,23.979 25.611,24.625C24.96,25.272 24.079,25.636 23.159,25.637L23.159,25.636Z" fill="#000000"/>
</svg>
