<svg width="1300" height="896" viewBox="0 0 1300 896" fill="none" xmlns="http://www.w3.org/2000/svg" xmlns:xlink="http://www.w3.org/1999/xlink">
<path d="M1293.6,468.904L1297.22,470.604L1298.08,468.774L1297.116,466.998L1293.6,468.904ZM543.6,84.904L541.422,81.549L541.358,81.591L541.294,81.635L543.6,84.904ZM5.6,368.904L9.47,369.916L9.721,368.956L9.493,367.988L5.6,368.904ZM236.6,408.904L236.474,404.906L236.224,404.914L235.976,404.952L236.6,408.904ZM177.6,722.904L181.592,722.666L177.6,722.904ZM1140.6,709.904L1137.726,707.122L1137.726,707.122L1140.6,709.904ZM1178.6,256.904L1175.016,258.682L1175.048,258.748L1175.084,258.812L1178.6,256.904ZM541.294,81.635C402.638,179.392 266.442,241.762 165.803,283.966C115.597,305.02 73.941,321.174 45.536,334.108C31.34,340.572 20.13,346.372 12.681,351.732C8.966,354.406 5.942,357.14 3.975,359.996C1.966,362.914 0.87,366.266 1.706,369.82L9.493,367.988C9.33,367.294 9.39,366.24 10.564,364.534C11.779,362.768 13.964,360.664 17.354,358.226C24.116,353.36 34.704,347.83 48.851,341.388C77.133,328.51 118.352,312.54 168.896,291.344C269.756,249.048 406.56,186.416 545.904,88.174L541.294,81.635ZM1.73,367.894C-4.574,392.01 6.865,412.17 26.63,428.17C46.327,444.114 74.93,456.548 105.059,465.732C135.261,474.936 167.35,480.982 194.299,483.974C207.776,485.47 220.02,486.21 230.14,486.19C240.144,486.17 248.44,485.412 253.804,483.718L251.396,476.09C247.258,477.396 239.992,478.17 230.126,478.19C220.374,478.208 208.44,477.496 195.182,476.022C168.662,473.078 137.064,467.124 107.391,458.078C77.644,449.012 50.185,436.946 31.663,421.952C13.21,407.014 4.273,389.8 9.47,369.916L1.73,367.894ZM253.804,483.718C274.456,477.196 287.682,457.36 286.846,438.972C286.42,429.626 282.344,420.668 273.85,414.272C265.432,407.932 253.062,404.388 236.474,404.906L236.724,412.902C252.136,412.42 262.518,415.752 269.036,420.662C275.48,425.514 278.528,432.182 278.854,439.336C279.518,453.946 268.742,470.612 251.396,476.09L253.804,483.718ZM235.976,404.952C225.454,406.614 211.666,414.198 197.347,424.886C182.871,435.692 167.328,450.072 153.229,466.004C139.137,481.93 126.387,499.518 117.583,516.774C108.825,533.94 103.735,551.24 105.63,566.4L113.569,565.408C111.964,552.57 116.249,536.994 124.71,520.41C133.125,503.916 145.438,486.88 159.22,471.306C172.996,455.738 188.141,441.742 202.133,431.298C216.282,420.734 228.744,414.194 237.224,412.854L235.976,404.952ZM105.63,566.4C107.597,582.136 119.162,594.886 134.699,604.892C150.325,614.954 170.672,622.714 191.703,628.272C212.768,633.838 234.742,637.254 253.756,638.52C272.602,639.776 289.08,638.96 298.864,635.7L296.334,628.11C288.12,630.848 272.972,631.782 254.288,630.538C235.77,629.304 214.306,625.97 193.747,620.536C173.152,615.094 153.687,607.604 139.031,598.166C124.287,588.672 115.102,577.672 113.569,565.408L105.63,566.4ZM298.864,635.7C319.316,628.882 327.158,606.406 322.068,588.794C319.47,579.812 313.472,571.792 303.872,567.502C294.308,563.228 281.718,562.894 266.316,568.116L268.884,575.692C282.98,570.914 293.392,571.582 300.608,574.806C307.79,578.016 312.354,583.998 314.382,591.016C318.54,605.402 311.882,622.928 296.334,628.11L298.864,635.7ZM266.316,568.116C235.474,578.572 211.6,605.304 195.863,635.032C180.119,664.774 172.119,698.252 173.607,723.144L181.592,722.666C180.211,699.556 187.71,667.534 202.934,638.776C218.164,610.004 240.726,585.238 268.884,575.692L266.316,568.116ZM173.607,723.144C175.059,747.44 187.561,769.756 208.24,789.564C228.904,809.356 257.928,826.844 293,841.616C363.154,871.164 458.246,890.138 561.304,894.552C767.218,903.372 1006.634,854.098 1143.474,712.686L1137.726,707.122C1003.23,846.114 766.648,895.34 561.646,886.56C459.244,882.174 365.148,863.322 296.106,834.244C261.578,819.702 233.5,802.678 213.774,783.786C194.065,764.908 182.89,744.368 181.592,722.666L173.607,723.144ZM1143.474,712.686C1182.606,672.246 1221.06,611.624 1249.648,561.338C1263.966,536.154 1275.854,513.482 1284.162,497.104C1288.318,488.914 1291.578,482.296 1293.802,477.724C1294.914,475.436 1295.768,473.66 1296.344,472.454C1296.63,471.85 1296.85,471.39 1296.996,471.078C1297.07,470.924 1297.126,470.806 1297.164,470.726C1297.182,470.686 1297.196,470.656 1297.206,470.636C1297.21,470.626 1297.214,470.618 1297.216,470.612C1297.218,470.61 1297.22,470.608 1297.22,470.606C1297.22,470.604 1297.22,470.604 1293.6,468.904C1289.978,467.206 1289.978,467.206 1289.978,467.206C1289.978,467.208 1289.976,467.21 1289.976,467.212C1289.974,467.216 1289.97,467.222 1289.966,467.232C1289.958,467.25 1289.944,467.278 1289.926,467.316C1289.89,467.392 1289.836,467.506 1289.766,467.658C1289.622,467.96 1289.406,468.412 1289.124,469.008C1288.556,470.198 1287.71,471.956 1286.608,474.224C1284.402,478.762 1281.16,485.34 1277.028,493.484C1268.762,509.778 1256.934,532.334 1242.694,557.384C1214.162,607.57 1176.116,667.448 1137.726,707.122L1143.474,712.686ZM1297.116,466.998L1182.116,254.998L1175.084,258.812L1290.084,470.812L1297.116,466.998ZM1182.182,255.128C1119.234,128.222 1019.726,45.402 905.43,14.078C791.132,-17.246 662.466,3.043 541.422,81.549L545.776,88.26C665.13,10.85 791.464,-8.861 903.316,21.794C1015.172,52.449 1112.966,133.587 1175.016,258.682L1182.182,255.128Z" transform="rotate(360 648.8 447.771)" fill="#000000"/>
</svg>
