<svg width="26" height="30" viewBox="0 0 26 30" fill="none" xmlns="http://www.w3.org/2000/svg" xmlns:xlink="http://www.w3.org/1999/xlink">
<path d="M26,29.594C26,29.818 25.824,30 25.606,30C25.389,30 25.212,29.818 25.212,29.594C25.212,22.654 19.745,17.027 13,17.027C6.255,17.027 0.788,22.654 0.788,29.594C0.788,29.818 0.611,30 0.394,30C0.176,30 0,29.818 0,29.594C0,22.206 5.82,16.216 13,16.216C20.18,16.216 26,22.206 26,29.594L26,29.594ZM13,15.405C8.866,15.405 5.515,11.957 5.515,7.703C5.515,3.449 8.866,0 13,0C17.134,0 20.485,3.449 20.485,7.703C20.485,11.957 17.134,15.405 13,15.405ZM13,14.594C16.699,14.594 19.697,11.509 19.697,7.703C19.697,3.897 16.699,0.811 13,0.811C9.301,0.811 6.303,3.897 6.303,7.703C6.303,11.509 9.301,14.594 13,14.594Z" fill="#FFFFFF"/>
</svg>
